<svg version="1.1" id="Layer_1" xmlns="http://www.w3.org/2000/svg" xmlns:xlink="http://www.w3.org/1999/xlink" x="0px" y="0px"
	 width="100%" viewBox="0 0 2048 813" enable-background="new 0 0 2048 813" xml:space="preserve">
<path fill="#FFFFFF" opacity="1.000000" stroke="none" 
	d="
M880.907471,565.374207 
	C884.375244,564.944275 887.849304,564.559204 891.309937,564.077942 
	C957.763306,554.836365 1007.365784,521.526306 1037.305420,460.864594 
	C1043.796753,447.712189 1048.313477,433.585297 1053.896484,419.512146 
	C1051.646851,418.959686 1050.868652,418.687164 1050.068604,418.583954 
	C1025.299072,415.388733 1000.533386,412.160309 975.738159,409.177338 
	C974.513428,409.029999 972.408325,410.749725 971.767212,412.100403 
	C968.058838,419.913177 965.017761,428.054474 961.102905,435.755219 
	C949.206177,459.156982 932.955627,478.503113 909.006348,490.546265 
	C889.917664,500.145264 869.597534,503.429443 848.470215,502.929138 
	C811.391235,502.051056 780.253540,488.051788 755.257751,460.610199 
	C736.432983,439.943573 725.916626,415.125610 720.298401,388.162781 
	C717.570740,375.072388 716.264954,361.685730 714.221375,347.793457 
	C828.544800,347.793457 941.609375,347.793457 1054.869751,347.793457 
	C1054.972778,345.851593 1055.065674,344.379944 1055.125244,342.906952 
	C1055.192261,341.243439 1055.242554,339.579041 1055.277466,337.914551 
	C1056.047241,301.248383 1053.358643,264.962402 1041.941284,229.848846 
	C1020.764648,164.721268 978.751038,119.794197 912.937012,98.518219 
	C903.223816,95.378204 893.044006,93.681694 882.517578,91.183815 
	C882.517578,113.200134 882.473206,134.017593 882.647461,154.833252 
	C882.656250,155.885178 884.365295,157.370392 885.602905,157.887817 
	C891.272400,160.258194 897.279541,161.905258 902.761963,164.625198 
	C934.603821,180.422424 956.045349,205.270538 965.539246,239.609207 
	C969.499817,253.934219 971.629700,268.765350 974.677185,283.786499 
	C888.561157,283.786499 803.997681,283.786499 718.694031,283.786499 
	C720.195923,274.479553 721.203308,265.530792 723.125488,256.783081 
	C732.587036,213.724991 756.522400,181.914185 796.913940,163.239883 
	C799.614502,161.991348 800.079346,160.508179 800.069763,157.947479 
	C799.995605,138.115280 800.034729,118.282669 800.016296,98.450218 
	C800.015015,97.040848 799.835022,95.631653 799.719299,93.948723 
	C783.189392,97.161705 767.657471,102.099915 752.987427,109.373405 
	C698.471497,136.402817 664.082153,180.172745 647.035767,238.049103 
	C637.106567,271.761169 634.130981,306.368042 634.957275,341.356110 
	C635.861511,379.644012 641.745239,416.969940 657.964539,452.055573 
	C679.078979,497.730560 712.659424,530.751953 759.305664,549.931213 
	C798.077698,565.872864 838.650146,568.996826 880.907471,565.374207 
M185.156998,207.499985 
	C185.156952,276.325165 185.276245,345.150696 185.068512,413.975250 
	C185.019806,430.112274 184.402069,446.290405 183.072510,462.369110 
	C181.651581,479.552795 173.927521,488.109680 156.929840,489.863129 
	C139.922729,491.617523 122.709229,491.375702 105.585480,491.989105 
	C103.661392,492.058044 101.732689,491.998383 99.917892,491.998383 
	C99.917892,513.800659 99.917892,534.916931 99.917892,556.424622 
	C108.590187,557.153381 117.022079,558.034607 125.476440,558.538940 
	C148.080002,559.887207 170.629501,561.214417 193.188278,557.013550 
	C228.382477,550.459778 257.118164,521.148315 259.127441,485.266479 
	C260.430267,461.999695 262.369598,438.723328 262.486755,415.443542 
	C262.899261,333.454590 262.647766,251.462296 262.648193,169.471268 
	C262.648193,167.515060 262.648193,165.558853 262.648193,163.385406 
	C331.038452,163.385406 398.933289,163.385406 467.373169,163.385406 
	C467.373169,294.537201 467.373169,425.415680 467.373169,556.474487 
	C493.173157,556.474487 518.427551,556.474487 543.905151,556.474487 
	C543.905151,404.195251 543.905151,252.167542 543.905151,100.206566 
	C424.221558,100.206566 304.850037,100.206566 185.156952,100.206566 
	C185.156952,135.891617 185.156952,171.195801 185.156998,207.499985 
M1756.984253,330.469849 
	C1740.369019,375.228241 1724.339600,420.179810 1712.592896,467.757202 
	C1711.715210,465.898193 1711.343384,465.345978 1711.183350,464.738007 
	C1699.951660,422.045197 1685.465942,380.417450 1670.451538,338.940430 
	C1642.015015,260.385925 1613.861938,181.728699 1585.734497,103.062874 
	C1584.566406,99.796074 1582.691040,99.799820 1580.102539,99.803619 
	C1555.270264,99.840050 1530.437988,99.819962 1505.605713,99.838539 
	C1504.210205,99.839584 1502.814819,100.037872 1501.053711,100.172249 
	C1501.837402,102.350914 1502.426025,104.064201 1503.066895,105.757698 
	C1522.620483,157.431625 1542.191284,209.098984 1561.733154,260.777344 
	C1578.626099,305.451233 1595.478638,350.140442 1612.364136,394.817139 
	C1632.602539,448.365936 1652.865479,501.905396 1673.051514,555.473877 
	C1673.520752,556.719177 1673.636475,558.421265 1673.186768,559.641052 
	C1665.818848,579.623779 1658.503052,599.628723 1650.823242,619.492493 
	C1644.051025,637.008789 1633.065918,651.081787 1615.823120,659.503113 
	C1600.312622,667.078430 1583.692139,667.930603 1566.979492,666.356018 
	C1555.648682,665.288391 1544.447388,662.845459 1533.025269,660.991089 
	C1533.025269,661.850647 1532.907227,663.005371 1533.042725,664.129517 
	C1535.672729,685.950256 1538.261597,707.776733 1541.136963,729.565369 
	C1541.338867,731.095459 1543.498535,733.206116 1545.091919,733.579895 
	C1557.056763,736.386902 1568.997437,740.054504 1581.153198,741.150818 
	C1619.090088,744.572571 1651.755005,733.191284 1677.473877,704.142212 
	C1696.093994,683.110962 1708.599609,658.456970 1718.702881,632.666016 
	C1739.460815,579.675842 1759.632568,526.452881 1779.677002,473.186981 
	C1804.703125,406.682373 1829.339355,340.031189 1854.179443,273.456482 
	C1871.397705,227.309326 1888.681519,181.186661 1905.922974,135.048157 
	C1910.223633,123.539520 1914.473877,112.011993 1918.730225,100.538849 
	C1918.134521,100.209961 1917.858643,99.924522 1917.582275,99.924004 
	C1893.084351,99.877747 1868.586182,99.799660 1844.089722,99.976532 
	C1842.780273,99.985985 1840.819336,101.908295 1840.283203,103.355545 
	C1828.374634,135.501083 1816.635620,167.709366 1804.840576,199.897018 
	C1788.980347,243.178635 1773.099854,286.452850 1756.984253,330.469849 
M1226.947998,121.500122 
	C1226.947998,114.393822 1226.947998,107.287521 1226.947998,100.204285 
	C1200.796509,100.204285 1175.257446,100.204285 1149.665649,100.204285 
	C1149.665649,252.324127 1149.665649,404.062988 1149.665649,555.891602 
	C1175.488037,555.891602 1201.041748,555.891602 1227.193848,555.891602 
	C1227.193848,485.515259 1227.193848,415.484131 1227.193848,345.171326 
	C1246.380737,345.633789 1263.305176,350.592010 1277.292358,363.324554 
	C1292.245361,376.936249 1303.277710,393.655762 1313.440308,410.889526 
	C1341.262939,458.071198 1368.824951,505.406647 1396.387817,552.740845 
	C1397.939453,555.405334 1399.613770,556.323486 1402.659302,556.308716 
	C1428.153442,556.184998 1453.648560,556.242493 1479.143311,556.225708 
	C1480.381714,556.224854 1481.620117,556.041382 1483.403687,555.899597 
	C1482.264893,553.829895 1481.450928,552.235352 1480.534546,550.702026 
	C1458.667969,514.114014 1437.074707,477.358490 1414.807983,441.015442 
	C1401.513550,419.316803 1387.915039,397.724030 1373.068604,377.079498 
	C1358.482178,356.796570 1340.518677,339.598663 1317.769043,328.246429 
	C1312.934448,325.833923 1307.792603,324.037354 1302.151123,321.690247 
	C1304.804810,320.376740 1306.849609,319.353302 1308.903931,318.349396 
	C1331.896851,307.113983 1350.301147,291.102509 1361.173706,267.479645 
	C1367.640259,253.429962 1373.620361,239.157074 1380.014526,225.073212 
	C1387.092163,209.483582 1394.295166,193.948883 1401.639648,178.483368 
	C1405.028442,171.347504 1411.124878,166.965546 1418.769287,166.110001 
	C1431.121216,164.727615 1443.575806,164.238586 1455.993530,163.480072 
	C1459.396606,163.272217 1462.822998,163.448486 1466.191162,163.448486 
	C1466.191162,141.900436 1466.191162,121.006996 1466.191162,99.026878 
	C1447.350098,99.946976 1428.886230,100.443878 1410.490845,101.841026 
	C1382.283447,103.983391 1362.339600,119.166252 1349.377563,143.527496 
	C1340.320435,160.549652 1332.463501,178.211716 1324.116943,195.610245 
	C1312.464600,219.899719 1301.595093,244.601044 1289.008789,268.395233 
	C1277.605835,289.952362 1251.783691,300.773499 1226.947632,296.281464 
	C1226.947632,238.404037 1226.947632,180.452042 1226.947998,121.500122 
z"/>
<path fill="#0A01FF" opacity="1.000000" stroke="none" 
	d="
M880.455811,565.452393 
	C838.650146,568.996826 798.077698,565.872864 759.305664,549.931213 
	C712.659424,530.751953 679.078979,497.730560 657.964539,452.055573 
	C641.745239,416.969940 635.861511,379.644012 634.957275,341.356110 
	C634.130981,306.368042 637.106567,271.761169 647.035767,238.049103 
	C664.082153,180.172745 698.471497,136.402817 752.987427,109.373405 
	C767.657471,102.099915 783.189392,97.161705 799.719299,93.948723 
	C799.835022,95.631653 800.015015,97.040848 800.016296,98.450218 
	C800.034729,118.282669 799.995605,138.115280 800.069763,157.947479 
	C800.079346,160.508179 799.614502,161.991348 796.913940,163.239883 
	C756.522400,181.914185 732.587036,213.724991 723.125488,256.783081 
	C721.203308,265.530792 720.195923,274.479553 718.694031,283.786499 
	C803.997681,283.786499 888.561157,283.786499 974.677185,283.786499 
	C971.629700,268.765350 969.499817,253.934219 965.539246,239.609207 
	C956.045349,205.270538 934.603821,180.422424 902.761963,164.625198 
	C897.279541,161.905258 891.272400,160.258194 885.602905,157.887817 
	C884.365295,157.370392 882.656250,155.885178 882.647461,154.833252 
	C882.473206,134.017593 882.517578,113.200134 882.517578,91.183815 
	C893.044006,93.681694 903.223816,95.378204 912.937012,98.518219 
	C978.751038,119.794197 1020.764648,164.721268 1041.941284,229.848846 
	C1053.358643,264.962402 1056.047241,301.248383 1055.277466,337.914551 
	C1055.242554,339.579041 1055.192261,341.243439 1055.125244,342.906952 
	C1055.065674,344.379944 1054.972778,345.851593 1054.869751,347.793457 
	C941.609375,347.793457 828.544800,347.793457 714.221375,347.793457 
	C716.264954,361.685730 717.570740,375.072388 720.298401,388.162781 
	C725.916626,415.125610 736.432983,439.943573 755.257751,460.610199 
	C780.253540,488.051788 811.391235,502.051056 848.470215,502.929138 
	C869.597534,503.429443 889.917664,500.145264 909.006348,490.546265 
	C932.955627,478.503113 949.206177,459.156982 961.102905,435.755219 
	C965.017761,428.054474 968.058838,419.913177 971.767212,412.100403 
	C972.408325,410.749725 974.513428,409.029999 975.738159,409.177338 
	C1000.533386,412.160309 1025.299072,415.388733 1050.068604,418.583954 
	C1050.868652,418.687164 1051.646851,418.959686 1053.896484,419.512146 
	C1048.313477,433.585297 1043.796753,447.712189 1037.305420,460.864594 
	C1007.365784,521.526306 957.763306,554.836365 891.309937,564.077942 
	C887.849304,564.559204 884.375244,564.944275 880.455811,565.452393 
z"/>
<path fill="#0A01FF" opacity="1.000000" stroke="none" 
	d="
M185.156982,206.999969 
	C185.156952,171.195801 185.156952,135.891617 185.156952,100.206566 
	C304.850037,100.206566 424.221558,100.206566 543.905151,100.206566 
	C543.905151,252.167542 543.905151,404.195251 543.905151,556.474487 
	C518.427551,556.474487 493.173157,556.474487 467.373169,556.474487 
	C467.373169,425.415680 467.373169,294.537201 467.373169,163.385406 
	C398.933289,163.385406 331.038452,163.385406 262.648193,163.385406 
	C262.648193,165.558853 262.648193,167.515060 262.648193,169.471268 
	C262.647766,251.462296 262.899261,333.454590 262.486755,415.443542 
	C262.369598,438.723328 260.430267,461.999695 259.127441,485.266479 
	C257.118164,521.148315 228.382477,550.459778 193.188278,557.013550 
	C170.629501,561.214417 148.080002,559.887207 125.476440,558.538940 
	C117.022079,558.034607 108.590187,557.153381 99.917892,556.424622 
	C99.917892,534.916931 99.917892,513.800659 99.917892,491.998383 
	C101.732689,491.998383 103.661392,492.058044 105.585480,491.989105 
	C122.709229,491.375702 139.922729,491.617523 156.929840,489.863129 
	C173.927521,488.109680 181.651581,479.552795 183.072510,462.369110 
	C184.402069,446.290405 185.019806,430.112274 185.068512,413.975250 
	C185.276245,345.150696 185.156952,276.325165 185.156982,206.999969 
z"/>
<path fill="#0A01FF" opacity="1.000000" stroke="none" 
	d="
M1757.106201,330.100037 
	C1773.099854,286.452850 1788.980347,243.178635 1804.840576,199.897018 
	C1816.635620,167.709366 1828.374634,135.501083 1840.283203,103.355545 
	C1840.819336,101.908295 1842.780273,99.985985 1844.089722,99.976532 
	C1868.586182,99.799660 1893.084351,99.877747 1917.582275,99.924004 
	C1917.858643,99.924522 1918.134521,100.209961 1918.730225,100.538849 
	C1914.473877,112.011993 1910.223633,123.539520 1905.922974,135.048157 
	C1888.681519,181.186661 1871.397705,227.309326 1854.179443,273.456482 
	C1829.339355,340.031189 1804.703125,406.682373 1779.677002,473.186981 
	C1759.632568,526.452881 1739.460815,579.675842 1718.702881,632.666016 
	C1708.599609,658.456970 1696.093994,683.110962 1677.473877,704.142212 
	C1651.755005,733.191284 1619.090088,744.572571 1581.153198,741.150818 
	C1568.997437,740.054504 1557.056763,736.386902 1545.091919,733.579895 
	C1543.498535,733.206116 1541.338867,731.095459 1541.136963,729.565369 
	C1538.261597,707.776733 1535.672729,685.950256 1533.042725,664.129517 
	C1532.907227,663.005371 1533.025269,661.850647 1533.025269,660.991089 
	C1544.447388,662.845459 1555.648682,665.288391 1566.979492,666.356018 
	C1583.692139,667.930603 1600.312622,667.078430 1615.823120,659.503113 
	C1633.065918,651.081787 1644.051025,637.008789 1650.823242,619.492493 
	C1658.503052,599.628723 1665.818848,579.623779 1673.186768,559.641052 
	C1673.636475,558.421265 1673.520752,556.719177 1673.051514,555.473877 
	C1652.865479,501.905396 1632.602539,448.365936 1612.364136,394.817139 
	C1595.478638,350.140442 1578.626099,305.451233 1561.733154,260.777344 
	C1542.191284,209.098984 1522.620483,157.431625 1503.066895,105.757698 
	C1502.426025,104.064201 1501.837402,102.350914 1501.053711,100.172249 
	C1502.814819,100.037872 1504.210205,99.839584 1505.605713,99.838539 
	C1530.437988,99.819962 1555.270264,99.840050 1580.102539,99.803619 
	C1582.691040,99.799820 1584.566406,99.796074 1585.734497,103.062874 
	C1613.861938,181.728699 1642.015015,260.385925 1670.451538,338.940430 
	C1685.465942,380.417450 1699.951660,422.045197 1711.183350,464.738007 
	C1711.343384,465.345978 1711.715210,465.898193 1712.592896,467.757202 
	C1724.339600,420.179810 1740.369019,375.228241 1757.106201,330.100037 
z"/>
<path fill="#0B02FF" opacity="1.000000" stroke="none" 
	d="
M1226.947754,122.000084 
	C1226.947632,180.452042 1226.947632,238.404037 1226.947632,296.281464 
	C1251.783691,300.773499 1277.605835,289.952362 1289.008789,268.395233 
	C1301.595093,244.601044 1312.464600,219.899719 1324.116943,195.610245 
	C1332.463501,178.211716 1340.320435,160.549652 1349.377563,143.527496 
	C1362.339600,119.166252 1382.283447,103.983391 1410.490845,101.841026 
	C1428.886230,100.443878 1447.350098,99.946976 1466.191162,99.026878 
	C1466.191162,121.006996 1466.191162,141.900436 1466.191162,163.448486 
	C1462.822998,163.448486 1459.396606,163.272217 1455.993530,163.480072 
	C1443.575806,164.238586 1431.121216,164.727615 1418.769287,166.110001 
	C1411.124878,166.965546 1405.028442,171.347504 1401.639648,178.483368 
	C1394.295166,193.948883 1387.092163,209.483582 1380.014526,225.073212 
	C1373.620361,239.157074 1367.640259,253.429962 1361.173706,267.479645 
	C1350.301147,291.102509 1331.896851,307.113983 1308.903931,318.349396 
	C1306.849609,319.353302 1304.804810,320.376740 1302.151123,321.690247 
	C1307.792603,324.037354 1312.934448,325.833923 1317.769043,328.246429 
	C1340.518677,339.598663 1358.482178,356.796570 1373.068604,377.079498 
	C1387.915039,397.724030 1401.513550,419.316803 1414.807983,441.015442 
	C1437.074707,477.358490 1458.667969,514.114014 1480.534546,550.702026 
	C1481.450928,552.235352 1482.264893,553.829895 1483.403687,555.899597 
	C1481.620117,556.041382 1480.381714,556.224854 1479.143311,556.225708 
	C1453.648560,556.242493 1428.153442,556.184998 1402.659302,556.308716 
	C1399.613770,556.323486 1397.939453,555.405334 1396.387817,552.740845 
	C1368.824951,505.406647 1341.262939,458.071198 1313.440308,410.889526 
	C1303.277710,393.655762 1292.245361,376.936249 1277.292358,363.324554 
	C1263.305176,350.592010 1246.380737,345.633789 1227.193848,345.171326 
	C1227.193848,415.484131 1227.193848,485.515259 1227.193848,555.891602 
	C1201.041748,555.891602 1175.488037,555.891602 1149.665649,555.891602 
	C1149.665649,404.062988 1149.665649,252.324127 1149.665649,100.204285 
	C1175.257446,100.204285 1200.796509,100.204285 1226.947998,100.204285 
	C1226.947998,107.287521 1226.947998,114.393822 1226.947754,122.000084 
z"/>
</svg>